HIERARCHY
ROOT newVegas:Hips
{
	OFFSET 0.000000 96.479958 0.000000
	CHANNELS 6 Xposition Yposition Zposition Xrotation Yrotation Zrotation
	JOINT newVegas:Pelvis
	{
		OFFSET 0.000000 0.000000 0.000000
		CHANNELS 3 Xrotation Yrotation Zrotation
		JOINT newVegas:LeftUpLeg
		{
			OFFSET 18.735201 -5.666702 -4.541200
			CHANNELS 3 Xrotation Yrotation Zrotation
			JOINT newVegas:LeftLeg
			{
				OFFSET -0.021200 -31.938179 0.493100
				CHANNELS 3 Xrotation Yrotation Zrotation
				JOINT newVegas:LeftFoot
				{
					OFFSET 0.021200 -31.938179 -4.336299
					CHANNELS 3 Xrotation Yrotation Zrotation
					JOINT newVegas:LeftToeBase
					{
						OFFSET 0.943001 -26.722000 15.023500
						CHANNELS 3 Xrotation Yrotation Zrotation
						End Site
						{
							OFFSET 0.000000 30.670183 0.000000
						}
					}
				}
				JOINT newVegas:Left_PantLeg
				{
					OFFSET 0.663870 -9.044666 -1.108900
					CHANNELS 3 Xrotation Yrotation Zrotation
					End Site
					{
						OFFSET 1.415995 20.635357 0.000000
					}
				}
			}
		}
		JOINT newVegas:RightUpLeg
		{
			OFFSET -18.735201 -5.666702 -4.541200
			CHANNELS 3 Xrotation Yrotation Zrotation
			JOINT newVegas:RightLeg
			{
				OFFSET 0.018946 -31.938133 0.493100
				CHANNELS 3 Xrotation Yrotation Zrotation
				JOINT newVegas:RightFoot
				{
					OFFSET -0.018946 -31.938126 -4.336299
					CHANNELS 3 Xrotation Yrotation Zrotation
					JOINT newVegas:RightToeBase
					{
						OFFSET -0.943001 -26.722004 15.023500
						CHANNELS 3 Xrotation Yrotation Zrotation
						End Site
						{
							OFFSET 0.000000 30.670187 0.000000
						}
					}
				}
				JOINT newVegas:Right_PantLeg
				{
					OFFSET -0.661674 -9.044716 -1.108900
					CHANNELS 3 Xrotation Yrotation Zrotation
					End Site
					{
						OFFSET -1.415958 20.635269 0.000000
					}
				}
			}
		}
	}
	JOINT newVegas:Spine
	{
		OFFSET 0.000000 10.199997 -0.299500
		CHANNELS 3 Xrotation Yrotation Zrotation
		JOINT newVegas:Spine1
		{
			OFFSET 0.000000 11.900002 -1.516600
			CHANNELS 3 Xrotation Yrotation Zrotation
			JOINT newVegas:Spine2
			{
				OFFSET 0.000000 13.600006 -2.842500
				CHANNELS 3 Xrotation Yrotation Zrotation
				JOINT newVegas:Neck
				{
					OFFSET 0.000000 9.624100 -2.890100
					CHANNELS 3 Xrotation Yrotation Zrotation
					JOINT newVegas:Head
					{
						OFFSET 0.000000 14.068802 -1.351900
						CHANNELS 3 Xrotation Yrotation Zrotation
						JOINT newVegas:Hair_Back
						{
							OFFSET 0.000000 3.231903 -17.524799
							CHANNELS 3 Xrotation Yrotation Zrotation
							End Site
							{
								OFFSET 0.000000 19.849884 0.000000
							}
						}
						JOINT newVegas:Hair_Front
						{
							OFFSET 0.000000 31.260406 4.573800
							CHANNELS 3 Xrotation Yrotation Zrotation
							JOINT newVegas:Hair_Front1
							{
								OFFSET 0.000000 2.284103 11.993300
								CHANNELS 3 Xrotation Yrotation Zrotation
								JOINT newVegas:Hair_Front2
								{
									OFFSET 0.000000 2.284103 11.993300
									CHANNELS 3 Xrotation Yrotation Zrotation
									End Site
									{
										OFFSET 0.000000 12.208862 0.000000
									}
								}
							}
						}
						JOINT newVegas:Jowel
						{
							OFFSET 0.000000 -7.458206 6.864100
							CHANNELS 3 Xrotation Yrotation Zrotation
							End Site
							{
								OFFSET 0.000000 19.849884 0.000000
							}
						}
					}
				}
				JOINT newVegas:LeftShoulder
				{
					OFFSET 15.263000 10.923401 -0.547700
					CHANNELS 3 Xrotation Yrotation Zrotation
					JOINT newVegas:LeftArm
					{
						OFFSET 25.438599 -2.830597 -13.032500
						CHANNELS 3 Xrotation Yrotation Zrotation
						JOINT newVegas:LeftForeArm
						{
							OFFSET 29.960503 0.000000 0.000000
							CHANNELS 3 Xrotation Yrotation Zrotation
							JOINT newVegas:LeftHand
							{
								OFFSET 27.849251 0.000000 0.000000
								CHANNELS 3 Xrotation Yrotation Zrotation
								JOINT newVegas:LeftHandThumb1
								{
									OFFSET 4.487587 -3.305161 6.305391
									CHANNELS 3 Xrotation Yrotation Zrotation
									JOINT newVegas:LeftHandThumb2
									{
										OFFSET 5.480453 -3.164139 3.164143
										CHANNELS 3 Xrotation Yrotation Zrotation
										JOINT newVegas:LeftHandThumb3
										{
											OFFSET 5.159721 -2.978973 2.978967
											CHANNELS 3 Xrotation Yrotation Zrotation
											End Site
											{
												OFFSET 2.494507 5.926697 1.738678
											}
										}
									}
								}
								JOINT newVegas:LeftHandIndex1
								{
									OFFSET 18.578728 -0.527832 5.208049
									CHANNELS 3 Xrotation Yrotation Zrotation
									JOINT newVegas:LeftHandIndex2
									{
										OFFSET 3.192009 0.000000 0.000000
										CHANNELS 3 Xrotation Yrotation Zrotation
										JOINT newVegas:LeftHandIndex3
										{
											OFFSET 3.835129 0.000000 0.000000
											CHANNELS 3 Xrotation Yrotation Zrotation
											End Site
											{
												OFFSET -0.034599 3.816971 0.371180
											}
										}
									}
								}
								JOINT newVegas:LeftHandMiddle1
								{
									OFFSET 18.476105 0.000000 0.000000
									CHANNELS 3 Xrotation Yrotation Zrotation
									JOINT newVegas:LeftHandMiddle2
									{
										OFFSET 3.324875 0.000000 0.000000
										CHANNELS 3 Xrotation Yrotation Zrotation
										JOINT newVegas:LeftHandMiddle3
										{
											OFFSET 4.596550 0.000000 0.000000
											CHANNELS 3 Xrotation Yrotation Zrotation
											End Site
											{
												OFFSET 0.057701 4.578827 0.399218
											}
										}
									}
								}
								JOINT newVegas:LeftHandRing1
								{
									OFFSET 17.732719 0.121887 -4.201567
									CHANNELS 3 Xrotation Yrotation Zrotation
									JOINT newVegas:LeftHandRing2
									{
										OFFSET 2.733170 0.000000 0.000000
										CHANNELS 3 Xrotation Yrotation Zrotation
										JOINT newVegas:LeftHandRing3
										{
											OFFSET 3.178268 0.000000 0.000000
											CHANNELS 3 Xrotation Yrotation Zrotation
											End Site
											{
												OFFSET 0.119102 3.170624 0.185394
											}
										}
									}
								}
								JOINT newVegas:LeftHandPinky1
								{
									OFFSET 15.989624 -0.606689 -7.535461
									CHANNELS 3 Xrotation Yrotation Zrotation
									JOINT newVegas:LeftHandPinky2
									{
										OFFSET 2.538986 0.000000 0.000000
										CHANNELS 3 Xrotation Yrotation Zrotation
										JOINT newVegas:LeftHandPinky3
										{
											OFFSET 2.593102 0.000000 0.000000
											CHANNELS 3 Xrotation Yrotation Zrotation
											End Site
											{
												OFFSET -0.150902 2.584198 0.152708
											}
										}
									}
								}
							}
							JOINT newVegas:Left_Sleeve
							{
								OFFSET 0.267448 -0.649796 0.577675
								CHANNELS 3 Xrotation Yrotation Zrotation
								End Site
								{
									OFFSET 0.000000 15.991241 0.000000
								}
							}
							JOINT newVegas:Left_CapeC
							{
								OFFSET 15.715958 -8.608795 -6.935905
								CHANNELS 3 Xrotation Yrotation Zrotation
								JOINT newVegas:Left_CapeC1
								{
									OFFSET 0.000000 -8.688499 0.000000
									CHANNELS 3 Xrotation Yrotation Zrotation
									End Site
									{
										OFFSET 0.000000 8.688499 0.000000
									}
								}
							}
						}
						JOINT newVegas:Left_CapeB
						{
							OFFSET 26.118385 -8.608795 -7.079235
							CHANNELS 3 Xrotation Yrotation Zrotation
							JOINT newVegas:Left_CapeB1
							{
								OFFSET 0.000000 -8.688499 0.000000
								CHANNELS 3 Xrotation Yrotation Zrotation
								End Site
								{
									OFFSET 0.000000 8.688499 0.000000
								}
							}
						}
						JOINT newVegas:Left_CapeA
						{
							OFFSET 5.115639 -8.608795 -10.395809
							CHANNELS 3 Xrotation Yrotation Zrotation
							JOINT newVegas:Left_CapeA1
							{
								OFFSET 0.000000 -8.688499 0.000000
								CHANNELS 3 Xrotation Yrotation Zrotation
								End Site
								{
									OFFSET 0.000000 8.688499 0.000000
								}
							}
						}
					}
				}
				JOINT newVegas:RightShoulder
				{
					OFFSET -15.263000 10.923401 -0.547700
					CHANNELS 3 Xrotation Yrotation Zrotation
					JOINT newVegas:RightArm
					{
						OFFSET -25.438599 -2.830597 -13.032500
						CHANNELS 3 Xrotation Yrotation Zrotation
						JOINT newVegas:RightForeArm
						{
							OFFSET -29.960503 0.000000 0.000000
							CHANNELS 3 Xrotation Yrotation Zrotation
							JOINT newVegas:RightHand
							{
								OFFSET -27.849251 0.000000 0.000000
								CHANNELS 3 Xrotation Yrotation Zrotation
								JOINT newVegas:RightHandThumb1
								{
									OFFSET -4.487587 -3.305161 6.305391
									CHANNELS 3 Xrotation Yrotation Zrotation
									JOINT newVegas:RightHandThumb2
									{
										OFFSET -5.480453 -3.164139 3.164143
										CHANNELS 3 Xrotation Yrotation Zrotation
										JOINT newVegas:RightHandThumb3
										{
											OFFSET -5.159721 -2.978973 2.978967
											CHANNELS 3 Xrotation Yrotation Zrotation
											End Site
											{
												OFFSET -2.494507 5.926697 1.738678
											}
										}
									}
								}
								JOINT newVegas:RightHandIndex1
								{
									OFFSET -18.578728 -0.527832 5.208049
									CHANNELS 3 Xrotation Yrotation Zrotation
									JOINT newVegas:RightHandIndex2
									{
										OFFSET -3.192009 0.000000 0.000000
										CHANNELS 3 Xrotation Yrotation Zrotation
										JOINT newVegas:RightHandIndex3
										{
											OFFSET -3.835129 0.000000 0.000000
											CHANNELS 3 Xrotation Yrotation Zrotation
											End Site
											{
												OFFSET 0.034599 3.816971 0.371180
											}
										}
									}
								}
								JOINT newVegas:RightHandMiddle1
								{
									OFFSET -18.476105 0.000000 0.000000
									CHANNELS 3 Xrotation Yrotation Zrotation
									JOINT newVegas:RightHandMiddle2
									{
										OFFSET -3.324875 0.000000 0.000000
										CHANNELS 3 Xrotation Yrotation Zrotation
										JOINT newVegas:RightHandMiddle3
										{
											OFFSET -4.596550 0.000000 0.000000
											CHANNELS 3 Xrotation Yrotation Zrotation
											End Site
											{
												OFFSET -0.057701 4.578827 0.399218
											}
										}
									}
								}
								JOINT newVegas:RightHandRing1
								{
									OFFSET -17.732719 0.121887 -4.201567
									CHANNELS 3 Xrotation Yrotation Zrotation
									JOINT newVegas:RightHandRing2
									{
										OFFSET -2.733170 0.000000 0.000000
										CHANNELS 3 Xrotation Yrotation Zrotation
										JOINT newVegas:RightHandRing3
										{
											OFFSET -3.178268 0.000000 0.000000
											CHANNELS 3 Xrotation Yrotation Zrotation
											End Site
											{
												OFFSET -0.119102 3.170624 0.185394
											}
										}
									}
								}
								JOINT newVegas:RightHandPinky1
								{
									OFFSET -15.989624 -0.606689 -7.535461
									CHANNELS 3 Xrotation Yrotation Zrotation
									JOINT newVegas:RightHandPinky2
									{
										OFFSET -2.538986 0.000000 0.000000
										CHANNELS 3 Xrotation Yrotation Zrotation
										JOINT newVegas:RightHandPinky3
										{
											OFFSET -2.593102 0.000000 0.000000
											CHANNELS 3 Xrotation Yrotation Zrotation
											End Site
											{
												OFFSET 0.150902 2.584198 0.152708
											}
										}
									}
								}
							}
							JOINT newVegas:Right_CapeC
							{
								OFFSET -15.715958 -8.608795 -6.935905
								CHANNELS 3 Xrotation Yrotation Zrotation
								JOINT newVegas:Right_CapeC1
								{
									OFFSET 0.000000 -8.688499 0.000000
									CHANNELS 3 Xrotation Yrotation Zrotation
									End Site
									{
										OFFSET 0.000000 8.688499 0.000000
									}
								}
							}
							JOINT newVegas:Right_Sleeve
							{
								OFFSET -0.267448 -0.649994 0.577675
								CHANNELS 3 Xrotation Yrotation Zrotation
								End Site
								{
									OFFSET 0.000000 15.991302 0.000000
								}
							}
						}
						JOINT newVegas:Right_CapeA
						{
							OFFSET -5.115540 -8.608795 -10.395824
							CHANNELS 3 Xrotation Yrotation Zrotation
							JOINT newVegas:Right_CapeA1
							{
								OFFSET 0.000000 -8.688499 0.000000
								CHANNELS 3 Xrotation Yrotation Zrotation
								End Site
								{
									OFFSET 0.000000 8.688499 0.000000
								}
							}
						}
						JOINT newVegas:Right_CapeB
						{
							OFFSET -26.118187 -8.608795 -7.079266
							CHANNELS 3 Xrotation Yrotation Zrotation
							JOINT newVegas:Right_CapeB1
							{
								OFFSET 0.000000 -8.688499 0.000000
								CHANNELS 3 Xrotation Yrotation Zrotation
								End Site
								{
									OFFSET 0.000000 8.688499 0.000000
								}
							}
						}
					}
				}
				JOINT newVegas:Left_Collar
				{
					OFFSET 18.625099 8.655502 8.828100
					CHANNELS 3 Xrotation Yrotation Zrotation
					JOINT newVegas:Left_Collar1
					{
						OFFSET 14.783401 10.540405 -1.259500
						CHANNELS 3 Xrotation Yrotation Zrotation
						End Site
						{
							OFFSET 0.000000 18.199875 0.000000
						}
					}
				}
				JOINT newVegas:Collar_Back
				{
					OFFSET 0.000000 15.630707 -20.132601
					CHANNELS 3 Xrotation Yrotation Zrotation
					End Site
					{
						OFFSET 0.000000 22.523010 0.000000
					}
				}
				JOINT newVegas:Left_Peck
				{
					OFFSET 17.239599 -5.132599 25.482599
					CHANNELS 3 Xrotation Yrotation Zrotation
					End Site
					{
						OFFSET 0.000000 22.523010 0.000000
					}
				}
				JOINT newVegas:Right_Peck
				{
					OFFSET -17.239599 -5.132202 25.482599
					CHANNELS 3 Xrotation Yrotation Zrotation
					End Site
					{
						OFFSET 0.000000 22.523010 0.000000
					}
				}
				JOINT newVegas:Right_Collar
				{
					OFFSET -18.625099 8.655792 8.828100
					CHANNELS 3 Xrotation Yrotation Zrotation
					JOINT newVegas:Right_Collar1
					{
						OFFSET -14.783401 10.539993 -1.259500
						CHANNELS 3 Xrotation Yrotation Zrotation
						End Site
						{
							OFFSET 0.000000 18.199631 0.000000
						}
					}
				}
			}
		}
		JOINT newVegas:Belly
		{
			OFFSET 0.000000 -6.540398 9.014299
			CHANNELS 3 Xrotation Yrotation Zrotation
			End Site
			{
				OFFSET 0.000000 11.566666 0.000000
			}
		}
	}
	JOINT newVegas:ElvisFacialAnim_Joint
	{
		OFFSET 1.000000 -95.330101 -8.825800
		CHANNELS 3 Xrotation Yrotation Zrotation
		End Site
		{
			OFFSET 0.000000 35.315800 0.000000
		}
	}
}
MOTION
Frames: 4
Frame Time: 0.033333
-3.047834 82.114578 -0.106553 -7.660983 -45.379043 -1.126383 -0.000001 0.000001 -0.000000 -33.750888 5.348491 21.247784 54.482875 -8.017016 5.683687 -17.428064 -7.967519 -20.376534 0.000000 0.000001 -0.000000 -0.000001 -0.000001 0.000000 -22.125346 -9.614491 -32.431535 64.950332 -3.874901 -5.251385 -29.899006 -10.264366 21.314355 0.000000 0.000001 -0.000000 0.000003 0.000000 -0.000000 10.018936 4.410754 -1.815532 9.120111 1.353249 -3.119533 9.125595 1.348819 -3.105456 4.602638 2.477955 -0.252176 4.602651 2.477939 -0.252172 -0.000002 -0.000001 0.000001 4.602663 2.477942 -0.252176 4.602713 2.477971 -0.252180 -0.000001 0.000000 -0.000000 -0.000002 -0.000001 0.000001 0.131719 -0.989221 -3.411710 -36.335104 6.844515 -55.252091 0.000035 -112.645208 0.000043 -1.456492 4.097806 -9.793577 -6.141216 -11.690805 -6.761684 9.914088 42.595515 3.409871 0.000003 -0.000004 -0.000003 0.255310 3.378227 -45.814341 5.654095 5.847757 -88.067455 0.000000 0.000001 0.000000 -0.461471 3.841582 -39.722673 6.450738 5.820342 -95.892871 -0.000000 -0.000004 -0.000002 0.469727 4.966808 -39.799444 8.181038 5.368609 -113.503011 -0.000000 0.000003 -0.000000 -3.762422 9.063712 -45.253821 5.342510 5.828973 -85.005317 0.000001 -0.000002 0.000002 -0.000001 -0.000000 -0.000003 -0.000001 -0.000000 -0.000003 -0.000001 0.000000 -0.000003 0.000002 0.000000 0.000001 0.000002 -0.000001 0.000000 0.000002 0.000000 0.000001 0.000002 -0.000002 -0.000000 7.194108 20.264311 -1.284295 -51.849964 28.271311 69.129069 0.001736 101.184594 -0.001693 -15.793627 18.045107 11.617850 -7.341096 13.749658 7.412324 9.855732 -44.489096 -3.903264 0.000002 -0.000006 -0.000007 -0.124370 -2.384793 45.108864 4.500587 -4.654543 88.071157 -0.000001 0.000002 0.000002 -0.761616 -2.932893 39.031058 5.133873 -4.632747 95.881649 0.000000 0.000000 0.000000 0.154765 -4.068804 39.122668 6.509734 -4.273584 113.462904 -0.000000 -0.000001 -0.000000 -4.198864 -8.025523 44.637772 4.252900 -4.639610 85.014811 0.000001 0.000003 -0.000001 0.000001 0.000001 0.000002 0.000001 0.000000 0.000000 0.000001 0.000001 0.000001 -0.000000 0.000003 -0.000002 -0.000000 0.000003 -0.000002 -0.000000 0.000003 -0.000002 -0.000000 0.000003 -0.000003 -0.000001 -0.000002 0.000000 -0.000001 -0.000002 0.000000 -0.000001 -0.000002 0.000000 -0.000001 -0.000002 0.000000 -0.000001 -0.000002 0.000000 -0.000001 -0.000002 0.000000 -0.000001 -0.000002 0.000000 0.000000 -0.000002 -0.000000 -0.000001 0.000001 -0.000000 
-2.911082 81.980583 0.666333 -7.434424 -45.617877 -1.012896 -0.000000 -0.000000 -0.000000 -33.768957 5.210664 21.104856 55.584933 -8.423370 5.282274 -18.358807 -7.294630 -19.987628 0.000000 0.000001 -0.000000 0.000001 0.000003 -0.000001 -21.539415 -9.825883 -32.588615 63.839517 -4.594285 -5.858827 -30.093387 -9.851757 22.347827 -0.000000 -0.000001 0.000000 -0.000001 0.000001 -0.000001 9.743970 4.887434 -1.677017 7.672817 1.286928 -2.563964 7.679236 1.283366 -2.549096 4.115849 2.641004 -0.263312 4.115865 2.640989 -0.263301 -0.000000 -0.000000 -0.000000 4.115857 2.641026 -0.263316 4.115879 2.640961 -0.263299 0.000000 -0.000001 -0.000000 -0.000000 -0.000000 -0.000000 0.297196 -0.165140 -4.545431 -39.951050 6.750370 -54.646612 0.000074 -112.175755 0.000081 -0.472891 0.935855 -10.964200 -6.141218 -11.690803 -6.761682 9.914093 42.595515 3.409868 0.000003 0.000002 -0.000001 0.255315 3.378228 -45.814344 5.654096 5.847760 -88.067455 -0.000001 -0.000001 -0.000000 -0.461468 3.841584 -39.722679 6.450732 5.820345 -95.892871 0.000000 0.000002 0.000001 0.469729 4.966812 -39.799447 8.181033 5.368609 -113.503004 -0.000002 0.000003 0.000001 -3.762423 9.063721 -45.253825 5.342513 5.828979 -85.005317 0.000000 -0.000003 -0.000000 -0.000002 0.000001 0.000001 -0.000002 0.000001 0.000001 -0.000003 0.000001 0.000001 0.000001 0.000000 -0.000000 0.000001 -0.000001 0.000001 0.000001 0.000000 -0.000000 0.000002 0.000001 -0.000001 6.581916 19.114749 -2.109819 -51.205259 28.373811 71.594419 0.001086 102.138382 -0.001061 -14.489391 17.628799 11.513489 -7.341098 13.749657 7.412322 9.855736 -44.489096 -3.903268 0.000000 -0.000004 -0.000001 -0.124370 -2.384795 45.108864 4.500586 -4.654544 88.071157 -0.000001 -0.000002 0.000000 -0.761618 -2.932900 39.031058 5.133869 -4.632747 95.881649 0.000001 -0.000001 0.000002 0.154765 -4.068803 39.122671 6.509732 -4.273590 113.462904 -0.000001 -0.000006 -0.000001 -4.198863 -8.025526 44.637766 4.252902 -4.639616 85.014811 0.000001 -0.000002 0.000001 -0.000001 0.000002 0.000001 0.000001 0.000001 0.000000 -0.000001 0.000001 0.000001 0.000001 -0.000001 -0.000001 0.000001 0.000000 -0.000003 0.000001 -0.000001 -0.000001 0.000001 -0.000000 -0.000002 -0.000000 0.000001 -0.000001 -0.000000 0.000001 -0.000001 -0.000000 0.000001 -0.000001 -0.000000 0.000001 -0.000001 -0.000000 0.000001 -0.000001 -0.000000 0.000001 -0.000001 -0.000000 0.000001 -0.000001 0.000000 0.000002 -0.000000 -0.000000 -0.000000 -0.000000 
-2.778514 81.713776 1.300980 -7.039604 -45.824637 -0.892700 0.000000 0.000001 -0.000000 -34.295339 4.856754 21.035697 57.218882 -8.202734 4.999928 -19.564396 -7.165518 -19.523939 -0.000000 -0.000003 -0.000000 -0.000001 -0.000003 0.000003 -20.987679 -9.959880 -32.483109 62.906691 -5.313132 -6.344718 -30.610466 -9.685569 23.305172 -0.000000 0.000001 -0.000000 -0.000001 0.000000 -0.000001 9.522363 5.343542 -1.558963 6.295924 1.190256 -2.031810 6.304040 1.184986 -2.015795 3.663484 2.794734 -0.229124 3.663477 2.794732 -0.229118 -0.000000 -0.000000 0.000001 3.663470 2.794730 -0.229119 3.663489 2.794714 -0.229122 -0.000000 0.000001 -0.000001 -0.000000 -0.000000 0.000001 0.443656 0.679390 -5.451966 -43.156216 6.377218 -53.962739 0.000161 -111.145708 0.000160 0.290100 -2.214629 -11.665222 -6.141214 -11.690806 -6.761685 9.914089 42.595522 3.409876 0.000002 -0.000000 -0.000003 0.255312 3.378224 -45.814341 5.654091 5.847760 -88.067455 0.000001 0.000000 0.000000 -0.461467 3.841577 -39.722683 6.450734 5.820344 -95.892864 -0.000001 0.000004 0.000001 0.469730 4.966807 -39.799444 8.181035 5.368607 -113.503011 -0.000000 0.000003 -0.000001 -3.762418 9.063712 -45.253828 5.342518 5.828977 -85.005317 -0.000002 -0.000003 -0.000000 0.000000 0.000000 -0.000000 0.000000 0.000000 -0.000000 0.000000 0.000001 0.000000 0.000002 -0.000002 0.000001 0.000002 -0.000003 0.000002 0.000002 -0.000002 0.000001 0.000002 -0.000003 0.000002 5.914912 17.867247 -2.877766 -50.771122 28.461697 74.008030 0.002226 103.028185 -0.002192 -13.235876 17.184753 11.616459 -7.341100 13.749661 7.412323 9.855734 -44.489096 -3.903260 -0.000000 -0.000004 -0.000001 -0.124371 -2.384791 45.108871 4.500589 -4.654541 88.071150 -0.000000 -0.000003 -0.000001 -0.761619 -2.932900 39.031068 5.133872 -4.632748 95.881649 -0.000000 0.000001 -0.000000 0.154765 -4.068800 39.122671 6.509735 -4.273582 113.462904 0.000001 0.000001 0.000000 -4.198862 -8.025525 44.637776 4.252892 -4.639614 85.014811 0.000000 -0.000000 -0.000000 -0.000001 0.000000 0.000001 -0.000001 -0.000001 0.000000 -0.000001 -0.000000 0.000002 -0.000000 0.000000 -0.000001 -0.000000 0.000001 -0.000001 -0.000000 0.000000 -0.000001 -0.000000 0.000001 -0.000001 -0.000000 0.000001 -0.000000 -0.000000 0.000001 -0.000000 -0.000000 0.000001 -0.000000 -0.000000 0.000001 -0.000000 -0.000000 0.000001 -0.000000 -0.000000 0.000001 -0.000000 -0.000000 0.000001 -0.000000 0.000000 0.000000 -0.000000 0.000000 0.000001 -0.000000 
-2.673370 81.353561 1.790836 -6.650089 -45.988835 -0.713450 0.000000 0.000002 0.000000 -34.914718 4.395053 20.936772 58.867925 -7.983275 4.772908 -20.688109 -7.010819 -19.205531 0.000000 -0.000002 -0.000000 -0.000000 -0.000005 -0.000000 -20.586398 -9.759830 -32.693786 62.321351 -5.509319 -6.690120 -30.709265 -9.778337 24.855429 -0.000000 0.000000 -0.000000 0.000001 0.000000 0.000001 9.387510 5.793827 -1.546693 5.045497 1.111695 -1.648390 5.055658 1.103863 -1.630789 3.257818 2.943280 -0.152345 3.257813 2.943263 -0.152339 0.000001 0.000002 -0.000001 3.257819 2.943284 -0.152343 3.257815 2.943250 -0.152337 -0.000002 -0.000001 -0.000000 0.000001 0.000002 -0.000002 0.563754 1.391659 -6.158264 -46.131255 5.940064 -53.145036 0.000225 -109.729632 0.000220 1.132948 -4.622705 -12.302452 -6.141216 -11.690800 -6.761687 9.914089 42.595519 3.409870 0.000000 -0.000004 -0.000003 0.255315 3.378228 -45.814348 5.654094 5.847759 -88.067455 -0.000000 -0.000001 -0.000001 -0.461469 3.841583 -39.722679 6.450733 5.820345 -95.892871 -0.000000 0.000001 -0.000000 0.469731 4.966811 -39.799444 8.181039 5.368607 -113.503011 0.000001 0.000001 0.000002 -3.762416 9.063717 -45.253825 5.342511 5.828974 -85.005317 0.000000 -0.000003 -0.000002 0.000000 -0.000001 0.000001 0.000000 -0.000001 0.000001 -0.000000 -0.000000 0.000001 -0.000001 0.000001 -0.000000 -0.000001 0.000000 0.000000 -0.000001 0.000001 -0.000000 -0.000001 -0.000001 0.000001 5.178045 16.457452 -3.416891 -50.448201 28.441980 76.471249 -0.000899 103.812346 0.000868 -12.055430 16.770300 11.808378 -7.341096 13.749655 7.412321 9.855734 -44.489096 -3.903267 0.000001 -0.000000 0.000003 -0.124373 -2.384799 45.108864 4.500590 -4.654542 88.071150 0.000000 -0.000002 0.000000 -0.761620 -2.932900 39.031058 5.133874 -4.632747 95.881649 -0.000001 -0.000001 0.000000 0.154765 -4.068803 39.122671 6.509735 -4.273582 113.462904 -0.000001 -0.000001 0.000001 -4.198865 -8.025527 44.637769 4.252896 -4.639612 85.014811 0.000000 0.000002 0.000000 -0.000002 0.000002 0.000000 0.000001 -0.000002 0.000001 -0.000002 0.000002 -0.000000 -0.000000 -0.000001 0.000002 -0.000000 0.000000 0.000003 -0.000000 -0.000001 0.000002 -0.000000 0.000000 0.000002 0.000002 -0.000000 0.000001 0.000002 -0.000000 0.000001 0.000002 -0.000000 0.000001 0.000002 -0.000000 0.000001 0.000002 -0.000000 0.000001 0.000002 -0.000000 0.000001 0.000002 -0.000000 0.000001 -0.000000 -0.000001 -0.000000 0.000000 0.000002 0.000000 
